<svg id="Boton" xmlns="http://www.w3.org/2000/svg" width="225" height="63.78" viewBox="0 0 225 63.78">
  <g id="Trazado_1" data-name="Trazado 1" transform="translate(-30.583 11)" fill="#efece6">
    <path d="M 254.582763671875 51.78002548217773 L 46.13523101806641 51.78002548217773 L 31.78008651733398 45.55870819091797 L 33.12007904052734 2.270447492599487 C 47.96060943603516 1.421635508537292 235.2817077636719 -9.291898727416992 247.0791473388672 -9.954668998718262 C 247.0905456542969 -9.938066482543945 247.1022644042969 -9.921039581298828 247.1142883300781 -9.903594017028809 C 247.3206176757812 -9.60441780090332 247.6254119873047 -9.17403507232666 248.0201416015625 -8.624417304992676 C 248.6806793212891 -7.704799652099609 249.6053466796875 -6.434035301208496 250.7685546875 -4.84738826751709 C 252.3873443603516 -2.639319181442261 254.0283508300781 -0.4194841384887695 254.582763671875 0.3298135101795197 L 254.582763671875 51.78002548217773 Z" stroke="none"/>
    <path d="M 246.5780792236328 -8.924873352050781 C 230.7485198974609 -8.030815124511719 54.11248779296875 2.071422576904297 34.09121704101562 3.216522216796875 L 32.80059814453125 44.91108703613281 L 46.34262084960938 50.78002166748047 L 253.5827331542969 50.78002166748047 L 253.5827331542969 0.6594734191894531 C 252.8984375 -0.265869140625 251.4212493896484 -2.265724182128906 249.9620208740234 -4.256153106689453 C 248.7969360351562 -5.845417022705078 247.8703155517578 -7.118827819824219 247.2079162597656 -8.041065216064453 C 246.9634399414062 -8.381443023681641 246.7528228759766 -8.676990509033203 246.5780792236328 -8.924873352050781 M 247.6139068603516 -10.98564910888672 C 247.6141357421875 -10.98564910888672 247.6141357421875 -10.98564147949219 247.6139984130859 -10.98562240600586 C 247.4613800048828 -10.96444702148438 255.5827331542969 -3.814697265625e-06 255.5827331542969 -3.814697265625e-06 L 255.5827331542969 52.78002166748047 L 45.92784118652344 52.78002166748047 L 30.75955200195312 46.2062873840332 L 32.14884948730469 1.324348449707031 C 32.14884948730469 1.324348449707031 247.3720855712891 -10.98564910888672 247.6139068603516 -10.98564910888672 Z" stroke="none" fill="#707070"/>
  </g>
  <path id="Trazado_2" data-name="Trazado 2" d="M619.1,150.775l-8.965-7.658" transform="translate(-395 -88)" fill="#fff" stroke="#707070" stroke-width="2"/>
</svg>
